<?xml version="1.0" standalone="no"?>
<svg viewBox="0 0 200 200" xmlns="http://www.w3.org/2000/svg">
  <path fill="#FF0066" d="M46.5,-80.3C60.4,-72.4,72.1,-60.4,78.6,-46.3C85.1,-32.2,86.5,-16.1,86,-0.3C85.4,15.5,82.9,30.9,76.3,45C69.8,59,59.2,71.5,45.8,79.8C32.4,88,16.2,91.9,0.4,91.3C-15.5,90.7,-31,85.6,-44.4,77.3C-57.8,69.1,-69.2,57.8,-76.4,44.4C-83.7,31,-86.7,15.5,-86,0.5C-85.2,-14.6,-80.5,-29.2,-73,-42.1C-65.5,-55.1,-55.2,-66.4,-42.5,-75C-29.9,-83.7,-14.9,-89.7,0.7,-90.9C16.3,-92,32.5,-88.3,46.5,-80.3Z" transform="translate(100 100)" />
</svg>
