<?xml version="1.0" standalone="no"?>
<svg xmlns:xlink="http://www.w3.org/1999/xlink" id="wave" style="transform:rotate(0deg); transition: 0.3s" viewBox="0 0 1440 260" version="1.1" xmlns="http://www.w3.org/2000/svg"><defs><linearGradient id="sw-gradient-0" x1="0" x2="0" y1="1" y2="0"><stop stop-color="rgba(178, 248, 255, 1)" offset="0%"/><stop stop-color="rgba(178, 248, 255, 1)" offset="100%"/></linearGradient></defs><path style="transform:translate(0, 0px); opacity:1" fill="url(#sw-gradient-0)" d="M0,130L48,125.7C96,121,192,113,288,121.3C384,130,480,156,576,177.7C672,199,768,217,864,208C960,199,1056,165,1152,151.7C1248,139,1344,147,1440,134.3C1536,121,1632,87,1728,69.3C1824,52,1920,52,2016,78C2112,104,2208,156,2304,164.7C2400,173,2496,139,2592,117C2688,95,2784,87,2880,99.7C2976,113,3072,147,3168,156C3264,165,3360,147,3456,130C3552,113,3648,95,3744,99.7C3840,104,3936,130,4032,156C4128,182,4224,208,4320,216.7C4416,225,4512,217,4608,182C4704,147,4800,87,4896,91C4992,95,5088,165,5184,186.3C5280,208,5376,182,5472,143C5568,104,5664,52,5760,52C5856,52,5952,104,6048,104C6144,104,6240,52,6336,65C6432,78,6528,156,6624,186.3C6720,217,6816,199,6864,190.7L6912,182L6912,260L6864,260C6816,260,6720,260,6624,260C6528,260,6432,260,6336,260C6240,260,6144,260,6048,260C5952,260,5856,260,5760,260C5664,260,5568,260,5472,260C5376,260,5280,260,5184,260C5088,260,4992,260,4896,260C4800,260,4704,260,4608,260C4512,260,4416,260,4320,260C4224,260,4128,260,4032,260C3936,260,3840,260,3744,260C3648,260,3552,260,3456,260C3360,260,3264,260,3168,260C3072,260,2976,260,2880,260C2784,260,2688,260,2592,260C2496,260,2400,260,2304,260C2208,260,2112,260,2016,260C1920,260,1824,260,1728,260C1632,260,1536,260,1440,260C1344,260,1248,260,1152,260C1056,260,960,260,864,260C768,260,672,260,576,260C480,260,384,260,288,260C192,260,96,260,48,260L0,260Z"/></svg>