<?xml version="1.0" standalone="no"?>
<svg xmlns:xlink="http://www.w3.org/1999/xlink" id="wave" style="transform:rotate(0deg); transition: 0.3s" viewBox="0 0 1440 220" version="1.1" xmlns="http://www.w3.org/2000/svg"><defs><linearGradient id="sw-gradient-0" x1="0" x2="0" y1="1" y2="0"><stop stop-color="rgba(131, 255, 230, 1)" offset="0%"/><stop stop-color="rgba(131, 255, 230, 1)" offset="100%"/></linearGradient></defs><path style="transform:translate(0, 0px); opacity:1" fill="url(#sw-gradient-0)" d="M0,0L48,14.7C96,29,192,59,288,80.7C384,103,480,117,576,124.7C672,132,768,132,864,113.7C960,95,1056,59,1152,36.7C1248,15,1344,7,1440,7.3C1536,7,1632,15,1728,25.7C1824,37,1920,51,2016,58.7C2112,66,2208,66,2304,80.7C2400,95,2496,125,2592,128.3C2688,132,2784,110,2880,88C2976,66,3072,44,3168,44C3264,44,3360,66,3456,62.3C3552,59,3648,29,3744,18.3C3840,7,3936,15,4032,14.7C4128,15,4224,7,4320,22C4416,37,4512,73,4608,80.7C4704,88,4800,66,4896,77C4992,88,5088,132,5184,157.7C5280,183,5376,191,5472,183.3C5568,176,5664,154,5760,143C5856,132,5952,132,6048,128.3C6144,125,6240,117,6336,124.7C6432,132,6528,154,6624,146.7C6720,139,6816,103,6864,84.3L6912,66L6912,220L6864,220C6816,220,6720,220,6624,220C6528,220,6432,220,6336,220C6240,220,6144,220,6048,220C5952,220,5856,220,5760,220C5664,220,5568,220,5472,220C5376,220,5280,220,5184,220C5088,220,4992,220,4896,220C4800,220,4704,220,4608,220C4512,220,4416,220,4320,220C4224,220,4128,220,4032,220C3936,220,3840,220,3744,220C3648,220,3552,220,3456,220C3360,220,3264,220,3168,220C3072,220,2976,220,2880,220C2784,220,2688,220,2592,220C2496,220,2400,220,2304,220C2208,220,2112,220,2016,220C1920,220,1824,220,1728,220C1632,220,1536,220,1440,220C1344,220,1248,220,1152,220C1056,220,960,220,864,220C768,220,672,220,576,220C480,220,384,220,288,220C192,220,96,220,48,220L0,220Z"/></svg>